<?xml version="1.0" encoding="UTF-8"?>
<!DOCTYPE svg PUBLIC "-//W3C//DTD SVG 1.1//EN" "http://www.w3.org/Graphics/SVG/1.1/DTD/svg11.dtd">
<!-- Creator: CorelDRAW -->
<svg xmlns="http://www.w3.org/2000/svg" xml:space="preserve" width="3.45989in" height="0.493138in" version="1.1" style="shape-rendering:geometricPrecision; text-rendering:geometricPrecision; image-rendering:optimizeQuality; fill-rule:evenodd; clip-rule:evenodd"
viewBox="0 0 10991.42 1566.6"
 xmlns:xlink="http://www.w3.org/1999/xlink"
 xmlns:xodm="http://www.corel.com/coreldraw/odm/2003">
 <defs>
  <style type="text/css">
   <![CDATA[
    .fil2 {fill:#00ABFF}
    .fil0 {fill:#00abff}
    .fil1 {fill:#6C30EC}
    .fil3 {fill:#6C30EC;fill-rule:nonzero}
   ]]>
  </style>
 </defs>
 <g id="Layer_x0020_1">
  <metadata id="CorelCorpID_0Corel-Layer"/>
  <g id="_2268101504896">
   <g>
    <path class="fil0" d="M2416.01 596.11c-45.98,70.29 -227.47,231.26 -299.93,302.76l-292.39 307.21c143.33,107.34 209.19,274.68 446.19,337.53 253.42,67.21 459.02,-46.14 577.08,-162.62 99.17,-97.86 757.49,-730.87 781.86,-787.61l-594.54 -593.39c-89.71,37.31 -511.6,535.29 -618.26,596.11z"/>
    <path class="fil1" d="M1811.44 1206.62c-21.46,-47.23 -523.11,-531.24 -600.69,-599.44l-603.33 -605.52 -607.42 604.32 584.75 583.82c216.09,173.9 381.93,461.44 782.06,353.01 222.98,-60.43 314.8,-229.84 444.64,-336.19z"/>
    <path class="fil2" d="M1210.75 607.18c77.58,68.2 579.23,552.21 600.69,599.44l12.24 -0.54 292.39 -307.21c72.47,-71.5 253.96,-232.47 299.93,-302.76l-593.01 -593.5c-36.61,19.22 -114.75,106.86 -149.95,142.33 -110.74,111.61 -400.47,356.7 -462.3,462.24z"/>
   </g>
   <polygon class="fil3" points="4064.14,404.19 4691.03,404.19 4691.03,566.21 4299.22,566.21 4299.22,686.94 4662.44,686.94 4662.44,841.54 4299.22,841.54 4299.22,990.85 4702.68,990.85 4702.68,1162.4 4064.14,1162.4 "/>
   <path id="_1" class="fil3" d="M5364.5 1037.44l-265.45 0 -38.12 124.96 -239.14 0 285.37 -758.21 256.45 0 284.15 758.21 -245.33 0 -37.93 -124.96zm-49.6 -164.13l-82.77 -272.51 -83.12 272.51 165.89 0z"/>
   <path id="_2" class="fil3" d="M5750.63 911.61l222.38 -13.95c4.77,36.01 14.66,63.54 29.48,82.25 24.18,30.53 58.6,45.89 103.42,45.89 33.36,0 59.12,-7.77 77.13,-23.48 18.17,-15.71 27.18,-33.88 27.18,-54.53 0,-19.6 -8.48,-37.25 -25.59,-52.77 -17.12,-15.53 -57.01,-30 -119.67,-43.95 -102.71,-22.95 -175.78,-53.66 -219.55,-91.95 -44.13,-38.12 -66.19,-86.84 -66.19,-146.13 0,-38.83 11.29,-75.54 33.89,-110.13 22.59,-34.77 56.47,-61.95 101.83,-81.72 45.35,-19.76 107.49,-29.65 186.37,-29.65 96.89,0 170.67,18.01 221.5,54.19 50.83,36 81.01,93.35 90.71,172.07l-220.26 13.06c-5.83,-34.42 -18.17,-59.47 -36.88,-75.01 -18.89,-15.71 -44.83,-23.48 -77.83,-23.48 -27.18,0 -47.83,5.83 -61.6,17.3 -13.77,11.47 -20.65,25.59 -20.65,42.19 0,11.99 5.65,22.76 16.77,32.47 10.76,10.06 36.88,19.24 78.18,27.89 102.36,22.06 175.61,44.48 219.73,67.06 44.3,22.59 76.61,50.48 96.72,84.01 20.12,33.36 30.18,70.77 30.18,112.24 0,48.54 -13.41,93.37 -40.24,134.49 -27,40.95 -64.42,72.19 -112.78,93.37 -48.19,21.17 -108.9,31.77 -182.32,31.77 -128.84,0 -218.14,-24.89 -267.74,-74.48 -49.59,-49.59 -77.66,-112.6 -84.19,-189.02z"/>
   <polygon id="_3" class="fil3" points="6548.54,404.19 6808.69,404.19 6962.05,659.4 7114.71,404.19 7373.45,404.19 7079.07,844.89 7079.07,1162.4 6843.98,1162.4 6843.98,844.89 "/>
   <polygon id="_4" class="fil3" points="7440.32,404.19 7662.7,404.19 7742.64,827.25 7859.83,404.19 8080.45,404.19 8198.53,827.95 8279,404.19 8500.32,404.19 8333.18,1162.4 8103.4,1162.4 7970.32,684.99 7838.13,1162.4 7608.69,1162.4 "/>
   <path id="_5" class="fil3" d="M9112.2 1037.44l-265.45 0 -38.12 124.96 -239.14 0 285.37 -758.21 256.45 0 284.15 758.21 -245.33 0 -37.93 -124.96zm-49.6 -164.13l-82.77 -272.51 -83.12 272.51 165.89 0z"/>
   <polygon id="_6" class="fil3" points="9372.32,404.19 9632.47,404.19 9785.83,659.4 9938.49,404.19 10197.23,404.19 9902.85,844.89 9902.85,1162.4 9667.76,1162.4 9667.76,844.89 "/>
   <path id="_7" class="fil3" d="M10708.16 1037.44l-265.45 0 -38.12 124.96 -239.14 0 285.37 -758.21 256.45 0 284.15 758.21 -245.33 0 -37.93 -124.96zm-49.6 -164.13l-82.77 -272.51 -83.12 272.51 165.89 0z"/>
  </g>
 </g>
</svg>
