<?xml version="1.0" encoding="UTF-8"?>
<!DOCTYPE svg PUBLIC "-//W3C//DTD SVG 1.1//EN" "http://www.w3.org/Graphics/SVG/1.1/DTD/svg11.dtd">
<!-- Creator: CorelDRAW X7 -->
<svg xmlns="http://www.w3.org/2000/svg" xml:space="preserve" width="6.16322in" height="2.51389in" version="1.1" style="shape-rendering:geometricPrecision; text-rendering:geometricPrecision; image-rendering:optimizeQuality; fill-rule:evenodd; clip-rule:evenodd"
viewBox="0 0 1060 432"
 xmlns:xlink="http://www.w3.org/1999/xlink">
 <defs>
  <style type="text/css">
   <![CDATA[
    .fil1 {fill:#FEA300}
    .fil0 {fill:white}
   ]]>
  </style>
 </defs>
 <g id="Layer_x0020_1">
  <metadata id="CorelCorpID_0Corel-Layer"/>
  <path class="fil0" d="M145 289l12 0c2,0 4,0 7,0l18 0c1,0 2,-4 3,-7 2,-2 2,-5 3,-8 1,-2 2,-4 3,-7l14 -40c0,0 0,0 1,0l14 62c3,0 7,0 10,0 4,0 7,0 10,0 7,0 13,0 21,0 1,-4 9,-21 11,-27l4 -9c0,-2 1,-3 1,-4l9 -20c3,-8 8,-20 11,-27l6 -13c0,-1 1,-3 1,-4 1,-1 2,-2 2,-3l-40 0c0,2 -1,5 -2,8l-6 16c-1,3 -2,5 -3,8l-11 32c0,0 0,1 0,1l-14 -57c0,-1 0,-3 -1,-4 0,-1 -1,-3 -1,-4l-41 0c0,1 -1,3 -1,4l-20 61c-2,-1 -1,0 -1,-2l-2 -6c-1,-5 -5,-18 -6,-24l-9 -33 -40 0c0,1 2,5 3,6l25 78c1,1 1,2 2,3l5 17c0,1 0,3 2,3z"/>
  <path class="fil0" d="M570 42c3,-2 19,-2 24,-2 36,-1 73,12 102,32 5,3 10,7 15,11l13 13 10 -8c0,0 1,-1 2,-1l19 -17c-1,-1 -2,-2 -4,-3l-4 -5c-1,0 -1,-1 -2,-1l-18 -16c-5,-4 -10,-7 -15,-11 -12,-8 -28,-15 -40,-20 -10,-4 -26,-8 -37,-10 -4,-1 -7,-2 -11,-2 -11,-2 -31,-3 -41,-2 -1,1 -2,0 -3,1 -15,0 -38,5 -51,9l-19 7c-5,2 -17,9 -22,11 -1,1 -2,1 -2,2l-9 5c0,0 -1,0 -2,1 -3,2 -21,15 -22,17 0,2 1,2 3,4l12 12c1,1 1,1 2,2 2,1 3,2 4,3 1,2 2,2 4,3 1,2 2,3 3,4 2,0 4,-2 5,-3 1,-1 1,-1 2,-2 1,-1 2,-1 2,-2 2,-1 3,-2 5,-3l5 -3c2,-1 3,-2 5,-3 12,-7 25,-13 39,-17 4,-2 21,-6 26,-6z"/>
  <path class="fil0" d="M7 181c0,7 -1,10 2,16 2,4 4,6 6,9 4,6 10,10 14,14l10 8c1,1 1,1 2,2l8 7c0,0 1,1 1,2 15,11 7,24 -22,21 -4,-1 -7,-2 -10,-3 -3,0 -6,-1 -9,-2 -2,-1 -7,-4 -9,-4 0,3 3,26 3,32 0,2 0,2 0,4l21 3c11,2 21,3 33,2 16,-2 31,-8 40,-21 7,-10 8,-26 2,-37 -10,-16 -21,-21 -33,-31 0,-1 -1,-1 -2,-1 -4,-4 -12,-11 -12,-17 0,-5 5,-7 8,-9 2,0 5,-1 7,-1 8,-1 14,0 23,2 3,1 11,4 13,4l-2 -18c0,-2 -1,-6 -1,-9 0,-2 0,-3 0,-5 0,-3 0,-2 -2,-3 -6,-1 -12,-2 -18,-2 -16,-2 -33,-2 -49,4 -13,5 -24,18 -24,33z"/>
  <path class="fil0" d="M460 330c0,2 6,7 8,8 8,9 15,15 25,22 6,5 13,9 20,12 3,2 7,4 10,6 2,0 10,3 11,4l7 3c3,1 6,1 8,2 5,2 11,3 17,4 13,2 19,2 32,2 3,0 3,0 5,0 1,-1 8,-1 9,-1 4,0 7,-1 10,-1 6,-1 12,-2 17,-4 20,-5 41,-15 57,-26 5,-4 21,-16 23,-19l-20 -20c-3,-2 -5,-5 -7,-6l-20 15c-1,2 -3,3 -5,4 -2,1 -4,2 -6,3l-9 5c-1,0 -2,1 -3,1 -21,8 -36,12 -61,11 -2,0 -6,0 -8,-1 -13,-1 -17,-3 -29,-6 -7,-2 -21,-9 -28,-13l-10 -7c-1,-1 -2,-1 -3,-2 -3,-3 -13,-11 -16,-15 -3,-3 -3,-2 -7,0 -1,1 -2,2 -4,3l-23 16z"/>
  <path class="fil0" d="M910 270c-6,0 -8,0 -14,-3 -5,-2 -9,-8 -11,-14 -6,-17 1,-43 22,-51 5,-1 10,-2 17,-2 4,0 13,0 15,2l-1 17c0,2 0,4 0,6 0,8 -1,15 -3,22 -1,4 -3,8 -5,12 -1,1 -1,1 -2,2 -2,2 -4,5 -8,6 -3,2 -6,3 -10,3zm30 -89c-14,-3 -35,-2 -48,3 -4,1 -8,3 -12,5 0,1 -1,1 -2,1 -7,5 -12,11 -16,18 -1,2 -1,3 -2,5 -6,13 -8,26 -6,40 1,4 2,8 3,11 1,2 1,3 2,5 3,6 7,10 13,14 1,2 2,2 4,3l5 2c13,6 30,5 42,-2 6,-4 8,-6 12,-10 1,-2 2,-4 3,-4 0,3 0,5 0,8l-1 9 28 0 0 -13c0,-4 1,-6 1,-9 0,-6 0,-12 0,-18 0,-6 1,-19 1,-26 0,-8 1,-17 1,-26l3 -47c1,-1 1,-3 1,-4l-30 0c-2,0 -1,4 -1,8 0,4 0,15 0,18l-1 9z"/>
  <path class="fil0" d="M378 171l0 11c-16,0 -14,0 -15,3l-1 27 13 0 -5 77c7,0 14,0 21,0 8,0 14,0 22,0l1 -14c0,-1 -1,-3 0,-5l1 -28c0,-2 0,-4 0,-6 0,-1 0,-2 0,-4 0,-7 1,-13 1,-20l21 0c2,0 1,-2 1,-6 1,-2 1,-3 1,-4 0,-2 0,-2 0,-4l1 -11c0,-1 0,-3 0,-5l-25 0c0,-10 2,-13 11,-15 4,0 16,2 20,4 0,-3 0,-4 0,-7 0,-2 -1,-4 -1,-7 0,-4 0,-8 0,-14 -7,-3 -24,-4 -33,-4 -4,0 -11,1 -14,2 -4,1 -7,3 -11,5 -1,2 -2,3 -4,5 -3,4 -5,13 -5,20z"/>
  <path class="fil0" d="M529 220c0,9 2,24 6,32 2,5 4,10 8,14 1,1 1,1 2,2 5,5 10,9 16,12 5,3 6,4 12,6 20,8 43,7 64,4 3,-1 7,-2 9,-2 1,-5 4,-24 4,-25l-18 4c-16,3 -30,3 -45,-3 -9,-4 -18,-12 -21,-21 -4,-10 -5,-14 -5,-25 0,-10 5,-22 10,-30 6,-8 13,-13 22,-17 8,-4 18,-5 26,-5 13,0 23,3 33,6 0,-8 -1,-15 -1,-23 0,-3 0,-2 -5,-3 -5,-1 -17,-3 -22,-3l-8 0c-16,0 -25,1 -38,6 -7,2 -17,7 -23,12 -5,5 -7,6 -12,13 -9,13 -14,29 -14,46z"/>
  <path class="fil1" d="M570 42l2 0c0,4 5,35 4,37 12,-1 20,-2 32,-1 1,0 4,0 4,1 2,-1 17,3 20,4 8,2 8,2 17,6 10,4 24,12 33,19 5,4 10,9 14,13l9 11c6,8 7,10 12,18 1,3 3,6 4,8l35 -14c-2,-8 -17,-30 -22,-37 -2,-2 -3,-4 -5,-5 -1,-1 -1,-2 -2,-3 -1,-1 -2,-2 -3,-3l-13 -13c-5,-4 -10,-8 -15,-11 -29,-20 -66,-33 -102,-32 -5,0 -21,0 -24,2z"/>
  <path class="fil0" d="M461 162c0,5 -2,17 -2,21l-17 0c0,3 -1,5 -1,8l-1 19c0,1 0,3 1,3l16 0 -3 52c0,9 2,16 9,21 3,2 7,4 11,5 13,2 24,1 37,-1 5,-1 6,-1 6,-3 1,0 1,-2 1,-3 0,-1 0,-3 1,-4l2 -14c1,-3 1,-6 2,-8l-7 2c-12,2 -19,1 -19,-14 0,-6 0,-11 0,-16 0,-2 0,-3 0,-5l1 -12 23 0c2,0 1,-2 1,-3l1 -12c0,-5 0,-9 0,-15l-24 0c0,-7 1,-16 1,-23 0,-9 5,-7 -23,-1 -6,1 -11,2 -16,3z"/>
  <path class="fil1" d="M719 342c-2,3 -18,15 -23,19 -16,11 -37,21 -57,26 -5,2 -11,3 -17,4 -3,0 -6,1 -10,1 -1,0 -8,0 -9,1l3 0 0 39c6,0 16,-1 22,-2 17,-3 25,-5 41,-10 2,-1 4,-2 6,-3 13,-5 21,-9 34,-17 7,-4 13,-9 19,-13 2,-2 3,-3 5,-4l7 -6c4,-5 11,-10 15,-15 0,-1 1,-1 1,-2l4 -5c1,0 2,-1 2,-2 2,-3 6,-6 8,-9l5 -8c1,-1 1,-2 2,-3 -2,0 -3,-1 -5,-2l-14 -6c-3,-1 -17,-7 -19,-7 -1,2 -3,4 -5,6 -3,4 -12,15 -15,18z"/>
  <path class="fil0" d="M675 186c0,5 -3,17 -3,20l9 -4c11,-3 35,-9 46,-3 8,4 8,14 0,19 -5,3 -18,6 -25,7 -14,4 -33,9 -41,23 -7,13 -3,29 7,37 11,8 31,8 45,6 1,-1 2,-1 2,-1 2,0 1,0 3,-5l3 -13c-4,0 -4,3 -19,3 -4,0 -9,-1 -11,-3 -6,-5 -7,-13 -2,-19l1 -1c4,-4 11,-6 16,-8 11,-4 17,-3 27,-10 0,6 0,23 -1,28 0,2 0,5 -1,7 0,2 0,5 0,7 0,4 -1,9 -1,13 7,0 14,0 20,0 11,0 10,3 10,-5 0,-9 1,-17 1,-25l2 -45c0,-4 1,-4 0,-10 -1,-7 -2,-10 -6,-14 -7,-7 -22,-10 -32,-10 -16,0 -25,0 -40,3 -4,1 -7,2 -10,3z"/>
  <path class="fil1" d="M534 382c-1,-1 -9,-4 -11,-4 -3,-2 -7,-4 -10,-6 -7,-3 -14,-7 -20,-12 -10,-7 -17,-13 -25,-22 -2,-1 -8,-6 -8,-8 -1,-1 -1,-1 -3,-4l-6 -7c-3,-5 -2,-5 -7,-2l-33 13c1,2 8,12 10,15 1,1 2,2 3,4l19 21c0,1 1,1 1,2 5,4 9,8 14,12l30 20 8 5c5,2 23,11 26,11l12 -38z"/>
  <path class="fil0" d="M987 208c0,15 13,24 24,33 6,5 17,12 17,19 0,8 -8,11 -15,11 -12,0 -16,-1 -27,-5 -2,0 -5,-2 -7,-2 0,2 1,5 1,7 0,2 1,5 1,7 0,3 0,5 0,8 1,1 0,1 2,2 18,4 45,7 62,-3 7,-4 13,-12 13,-21 0,-12 -4,-17 -12,-25l-16 -13c-3,-2 -10,-7 -12,-11 -2,-4 -1,-10 4,-12 7,-4 20,-3 28,-1 3,1 7,2 10,3l-2 -22 -13 -2c-11,-2 -25,-2 -36,1 -8,2 -14,5 -19,13 -1,3 -3,8 -3,13z"/>
  <path class="fil0" d="M576 79c-3,0 -5,0 -8,1 -2,0 -5,1 -7,2 -2,0 -5,1 -7,1 -5,2 -14,6 -19,8 -2,1 -4,2 -6,3l-19 12c-1,1 -1,1 -2,2l-5 4c-3,3 -6,5 -9,9l-5 5c-1,1 -3,3 -3,5l26 18c0,1 1,1 1,2 1,0 2,1 2,1l8 -9c8,-7 21,-16 30,-20 15,-6 24,-9 41,-9 9,0 9,1 16,1 0,-1 0,-2 0,-4l2 -32c0,-1 -3,-1 -4,-1 -12,-1 -20,0 -32,1z"/>
  <path class="fil0" d="M310 185c0,4 0,10 -1,14 0,4 0,9 0,13l-1 36c0,2 -1,2 -1,3 0,12 -1,21 -2,32 0,2 -1,5 -1,6l13 0c4,0 7,0 11,0 7,0 14,0 21,0l0 -21c0,-3 1,-4 1,-7 0,-4 0,-9 0,-14 0,-6 1,-34 1,-39 1,-1 1,-2 1,-3 0,-5 1,-19 1,-23l-43 0 0 3z"/>
  <path class="fil0" d="M811 196l1 -14 -29 0 0 39c0,3 -1,3 -1,6 0,2 0,4 0,6l-2 45c-1,3 -1,8 -1,11 6,0 10,0 16,0 5,0 9,0 15,0l-1 -14c0,-11 1,-21 1,-31 0,-1 0,-2 0,-3 1,-11 2,-19 9,-28 3,-4 8,-7 13,-8 3,-1 9,-1 13,-1 2,1 4,2 6,2l-1 -13c0,-4 0,-8 0,-12 -3,-2 -8,-1 -11,-1 -10,0 -19,5 -25,13 -1,1 -2,2 -3,3z"/>
  <path class="fil0" d="M311 151c0,5 0,11 0,16 -1,2 0,2 6,2 5,-1 21,-1 27,-1 9,1 9,3 9,-5 0,-4 0,-6 0,-10l1 -10 -43 0 0 8z"/>
 </g>
</svg>
